<svg width="40" height="41" viewBox="0 0 40 41" fill="none" xmlns="http://www.w3.org/2000/svg">
<path d="M19.4 20.4582C24.0392 20.4582 27.8 16.6974 27.8 12.0582C27.8 7.41901 24.0392 3.6582 19.4 3.6582C14.7608 3.6582 11 7.41901 11 12.0582C11 16.6974 14.7608 20.4582 19.4 20.4582Z" fill="#5367FF"/>
<path d="M6.25 39.1574H21.7C19.5051 37.3982 18.0516 34.8782 17.6279 32.0974C17.2042 29.3165 17.8412 26.478 19.4125 24.1449C16.181 23.9844 13.1361 22.5828 10.9125 20.2324C8.41988 21.2846 6.29258 23.0481 4.7964 25.3023C3.30021 27.5566 2.50148 30.2018 2.5 32.9074V35.4074C2.50297 36.4011 2.89901 37.3532 3.60163 38.0558C4.30425 38.7584 5.25635 39.1545 6.25 39.1574Z" fill="#5367FF"/>
<path d="M20 30.4082C20 32.1388 20.5132 33.8305 21.4746 35.2694C22.4361 36.7084 23.8027 37.8299 25.4015 38.4922C27.0004 39.1544 28.7597 39.3277 30.457 38.9901C32.1544 38.6525 33.7135 37.8191 34.9372 36.5954C36.1609 35.3717 36.9943 33.8126 37.3319 32.1152C37.6695 30.4179 37.4962 28.6586 36.834 27.0597C36.1717 25.4609 35.0502 24.0943 33.6112 23.1328C32.1723 22.1714 30.4806 21.6582 28.75 21.6582C26.4302 21.6608 24.2061 22.5836 22.5657 24.2239C20.9254 25.8643 20.0026 28.0884 20 30.4082ZM30 27.9082V29.1582H31.25C31.5815 29.1582 31.8995 29.2899 32.1339 29.5243C32.3683 29.7587 32.5 30.0767 32.5 30.4082C32.5 30.7397 32.3683 31.0577 32.1339 31.2921C31.8995 31.5265 31.5815 31.6582 31.25 31.6582H30V32.9082C30 33.2397 29.8683 33.5577 29.6339 33.7921C29.3995 34.0265 29.0815 34.1582 28.75 34.1582C28.4185 34.1582 28.1005 34.0265 27.8661 33.7921C27.6317 33.5577 27.5 33.2397 27.5 32.9082V31.6582H26.25C25.9185 31.6582 25.6005 31.5265 25.3661 31.2921C25.1317 31.0577 25 30.7397 25 30.4082C25 30.0767 25.1317 29.7587 25.3661 29.5243C25.6005 29.2899 25.9185 29.1582 26.25 29.1582H27.5V27.9082C27.5 27.5767 27.6317 27.2587 27.8661 27.0243C28.1005 26.7899 28.4185 26.6582 28.75 26.6582C29.0815 26.6582 29.3995 26.7899 29.6339 27.0243C29.8683 27.2587 30 27.5767 30 27.9082Z" fill="#5367FF"/>
</svg>
