<svg width="1274" height="217" viewBox="0 0 1274 217" fill="none" xmlns="http://www.w3.org/2000/svg">
<mask id="mask0_1064_54313" style="mask-type:alpha" maskUnits="userSpaceOnUse" x="0" y="0" width="1274" height="217">
<rect x="0.924561" y="0.408203" width="1272.15" height="216" rx="16" fill="#3671E9"/>
</mask>
<g mask="url(#mask0_1064_54313)">
<path d="M1256.8 155.802C1259.83 136.375 1244.2 125.862 1222.63 118.891L1229.66 92.493L1212.7 88.4933L1205.92 114.205C1201.43 113.177 1196.83 112.148 1192.23 111.234L1199.01 85.4079L1182.05 81.4082L1175.14 107.692C1171.39 106.892 1167.75 106.092 1164.24 105.292V105.178L1140.74 99.6924L1136.26 116.834C1136.26 116.834 1148.86 119.576 1148.61 119.691C1155.52 121.291 1156.73 125.633 1156.49 129.061L1148.49 159.116C1148.98 159.23 1149.58 159.345 1150.31 159.687C1149.7 159.573 1149.1 159.459 1148.49 159.23L1137.35 201.284C1136.5 203.227 1134.32 206.198 1129.59 205.055C1129.71 205.284 1117.24 202.198 1117.24 202.198L1108.76 220.597L1130.93 225.853C1135.04 226.882 1139.04 227.796 1143.04 228.824L1136.01 255.451L1152.97 259.45L1160 233.053C1164.6 234.195 1169.21 235.338 1173.57 236.367L1166.66 262.65L1183.62 266.65L1190.65 240.023C1219.73 245.166 1241.53 243.109 1250.62 218.311C1258.01 198.427 1250.26 186.885 1234.99 179.343C1246.26 176.943 1254.62 169.972 1256.8 155.802ZM1217.91 207.226C1212.7 227.11 1177.08 216.368 1165.57 213.626L1174.9 178.314C1186.41 181.057 1223.48 186.428 1217.91 207.226ZM1223.24 155.459C1218.39 173.629 1188.83 164.373 1179.26 162.087L1187.74 130.09C1197.31 132.375 1228.21 136.604 1223.24 155.459Z" fill="url(#paint0_linear_1064_54313)"/>
<path d="M108.432 156.095L24.2473 109.231L108.38 221.107L192.608 109.231L108.38 156.095H108.432ZM109.683 -37.5918L25.5328 94.1544L109.683 141.099L193.867 94.2029L109.683 -37.5918Z" fill="url(#paint1_linear_1064_54313)"/>
</g>
<defs>
<linearGradient id="paint0_linear_1064_54313" x1="1182.96" y1="81.4082" x2="1182.96" y2="266.65" gradientUnits="userSpaceOnUse">
<stop stop-color="white" stop-opacity="0.16"/>
<stop offset="1" stop-color="white" stop-opacity="0"/>
</linearGradient>
<linearGradient id="paint1_linear_1064_54313" x1="109.057" y1="-37.5918" x2="109.057" y2="186.822" gradientUnits="userSpaceOnUse">
<stop stop-color="white" stop-opacity="0.16"/>
<stop offset="1" stop-color="white" stop-opacity="0"/>
</linearGradient>
</defs>
</svg>
