<svg width="40" height="41" viewBox="0 0 40 41" fill="none" xmlns="http://www.w3.org/2000/svg">
<path d="M17.5 12.9082V10.4082H2.5C1.1225 10.4082 0 11.5307 0 12.9082V17.9082H18.0275C17.68 16.3807 17.5 14.7357 17.5 12.9082Z" fill="#5367FF"/>
<path d="M39.8975 22.9082C38.1925 25.5357 35.5925 27.7707 31.8675 29.9107C31.295 30.2382 30.65 30.4082 30 30.4082C29.35 30.4082 28.705 30.2382 28.14 29.9157C24.415 27.7707 21.815 25.5332 20.1075 22.9082H0V35.4082C0 36.7882 1.1225 37.9082 2.5 37.9082H37.5C38.88 37.9082 40 36.7882 40 35.4082V22.9082H39.8975V22.9082ZM11.25 30.4082H6.25C5.56 30.4082 5 29.8482 5 29.1582C5 28.4682 5.56 27.9082 6.25 27.9082H11.25C11.94 27.9082 12.5 28.4682 12.5 29.1582C12.5 29.8482 11.94 30.4082 11.25 30.4082Z" fill="#5367FF"/>
<path d="M39.2425 6.75945L30.4925 3.00945C30.175 2.87445 29.8225 2.87445 29.505 3.00945L20.755 6.75945C20.2975 6.95445 20 7.40695 20 7.90695V12.907C20 19.7845 22.5425 23.8045 29.3775 27.742C29.57 27.852 29.785 27.907 30 27.907C30.215 27.907 30.43 27.852 30.6225 27.742C37.4575 23.8145 40 19.7945 40 12.907V7.90695C40 7.40695 39.7025 6.95445 39.2425 6.75945ZM34.7275 12.4395L29.7275 18.6895C29.4875 18.9845 29.1275 19.157 28.75 19.157C28.7325 19.157 28.7125 19.157 28.6975 19.157C28.3 19.1395 27.9325 18.9345 27.71 18.602L25.21 14.852C24.8275 14.277 24.9825 13.502 25.5575 13.1195C26.1275 12.7395 26.905 12.8895 27.29 13.467L28.8425 15.7945L32.7725 10.8795C33.205 10.342 33.9925 10.257 34.53 10.6845C35.07 11.112 35.155 11.8995 34.7275 12.4395Z" fill="#5367FF"/>
</svg>
