<svg width="70" height="71" viewBox="0 0 70 71" fill="none" xmlns="http://www.w3.org/2000/svg">
<rect y="0.408203" width="70" height="70" rx="10" fill="#E2F2FF"/>
<path d="M45.7497 40.3145C43.1873 40.3145 40.9849 41.8574 40.0209 44.0644H29.9107C29.6451 44.0644 29.3865 44.1551 29.1787 44.3215L27.36 45.7762C26.8279 46.2019 26.7693 46.9894 27.2334 47.4887L29.61 50.048C30.0615 50.5347 30.8271 50.5496 31.2974 50.0793L31.5451 49.8316C31.9779 49.3988 32.6717 49.3722 33.1365 49.7707L33.7373 50.2855C34.1763 50.6621 34.8232 50.6621 35.2623 50.2855L36.3584 49.3465C36.5709 49.1644 36.8412 49.0644 37.1209 49.0644H40.0209C40.9849 51.2715 43.1873 52.8144 45.7497 52.8144C49.17 52.8144 51.9403 50.0949 51.9989 46.6746C52.0591 43.1723 49.238 40.3145 45.7497 40.3145ZM47.5466 47.7363C46.899 47.7363 46.374 47.2113 46.374 46.5644C46.374 45.9176 46.899 45.3926 47.5466 45.3926C48.1935 45.3926 48.7185 45.9176 48.7185 46.5644C48.7185 47.2113 48.1935 47.7363 47.5466 47.7363Z" fill="#5367FF"/>
<path d="M19.6562 38.6738C19.0962 38.6738 18.6406 39.1295 18.6406 39.6895V40.9395C18.6406 41.4995 19.0962 41.9551 19.6562 41.9551C20.2162 41.9551 20.6719 41.4995 20.6719 40.9395V39.6895C20.6719 39.1295 20.2162 38.6738 19.6562 38.6738Z" fill="#5367FF"/>
<path d="M25.2812 31.9551C25.8412 31.9551 26.2968 31.4995 26.2968 30.9395V29.6895C26.2968 29.1295 25.8412 28.6738 25.2812 28.6738C24.7212 28.6738 24.2656 29.1295 24.2656 29.6895V30.9395C24.2656 31.4995 24.7212 31.9551 25.2812 31.9551Z" fill="#5367FF"/>
<path d="M36.2188 17.0664V22.7367H42.3797L36.2188 17.0664Z" fill="#5367FF"/>
<path d="M38.6507 51.4081H37.5546L36.7882 52.0651C35.5291 53.1435 33.6929 53.1926 32.382 52.2018C30.942 53.1377 29.0429 52.8827 27.8929 51.6432L25.5156 49.0839C24.1245 47.5845 24.3041 45.2179 25.896 43.9464L26.3804 43.5589C26.3273 43.4253 26.2968 43.28 26.2968 43.1268V39.2964C25.839 39.3261 25.3882 39.0862 25.1703 38.6511C24.8812 38.0722 25.1156 37.3683 25.6945 37.0784L26.9445 36.4534C27.7196 36.0666 28.6406 36.6272 28.6406 37.5019V41.9597C29.0437 41.8034 29.4749 41.7206 29.9109 41.7206H31.9218V39.2964C31.4648 39.3261 31.0132 39.0862 30.7952 38.6511C30.5062 38.0722 30.7405 37.3683 31.3195 37.0784L32.5695 36.4534C33.3446 36.0666 34.2655 36.6272 34.2655 37.5019V41.7206H38.6507C39.7272 40.1425 41.2952 38.9753 43.0936 38.3909V34.455H46.7946C47.2335 35.3788 48.1748 36.0175 49.2655 36.0175C50.7756 36.0175 51.9998 34.7933 51.9998 33.2831C51.9998 31.773 50.7756 30.5488 49.2655 30.5488C48.1748 30.5488 47.2335 31.1875 46.7946 32.1113H43.0936V29.8456H45.2811C47.2196 29.8456 48.7967 28.2685 48.7967 26.33V21.6134C49.7205 21.1745 50.3592 20.2332 50.3592 19.1426C50.3592 17.6324 49.135 16.4082 47.6249 16.4082C46.1147 16.4082 44.8905 17.6324 44.8905 19.1426C44.8905 20.2333 45.5292 21.1746 46.453 21.6134V26.33C46.453 26.9762 45.9273 27.5019 45.2811 27.5019H43.0936V25.08H35.0468C34.3999 25.08 33.8749 24.555 33.8749 23.9082V16.4082H13.1719C12.525 16.4082 12 16.9332 12 17.5801V55.2362C12 55.883 12.525 56.408 13.1719 56.408H41.9218C42.5686 56.408 43.0936 55.883 43.0936 55.2362V54.7377C41.2952 54.1526 39.7272 52.9854 38.6507 51.4081ZM31.3195 27.0785L32.5695 26.4535C33.3446 26.0667 34.2655 26.6272 34.2655 27.5019V33.1269C34.2655 33.7738 33.7405 34.2988 33.0937 34.2988C32.4468 34.2988 31.9218 33.7738 31.9218 33.1269V29.2964C31.4648 29.3261 31.0132 29.0863 30.7952 28.6511C30.5062 28.0722 30.7405 27.3683 31.3195 27.0785ZM28.6406 29.6894V30.9394C28.6406 32.7917 27.1335 34.2988 25.2812 34.2988C23.4289 34.2988 21.9218 32.7917 21.9218 30.9394V29.6894C21.9218 27.8371 23.4289 26.33 25.2812 26.33C27.1335 26.33 28.6406 27.8371 28.6406 29.6894ZM17.4687 21.8769H22.4687C23.1156 21.8769 23.6406 22.4019 23.6406 23.0488C23.6406 23.6957 23.1156 24.2207 22.4687 24.2207H17.4687C16.8219 24.2207 16.2969 23.6957 16.2969 23.0488C16.2969 22.4019 16.8219 21.8769 17.4687 21.8769ZM16.4203 28.6511C16.1312 28.0722 16.3656 27.3683 16.9445 27.0785L18.1945 26.4535C18.9697 26.0667 19.8906 26.6272 19.8906 27.5019V33.1269C19.8906 33.7738 19.3656 34.2988 18.7187 34.2988C18.0719 34.2988 17.5469 33.7738 17.5469 33.1269V29.2964C17.089 29.3261 16.6383 29.0863 16.4203 28.6511ZM23.0156 40.9394C23.0156 42.7917 21.5086 44.2987 19.6562 44.2987C17.8039 44.2987 16.2969 42.7917 16.2969 40.9394V39.6894C16.2969 37.837 17.8039 36.33 19.6562 36.33C21.5086 36.33 23.0156 37.837 23.0156 39.6894V40.9394Z" fill="#5367FF"/>
</svg>
