<svg width="40" height="41" viewBox="0 0 40 41" fill="none" xmlns="http://www.w3.org/2000/svg">
<g clip-path="url(#clip0_1064_54071)">
<path d="M38.8276 38.0641H37.5776V14.9394C37.5776 14.2923 37.0529 13.7676 36.4058 13.7676H31.7183C31.0711 13.7676 30.5465 14.2923 30.5465 14.9394V38.0641H28.2027V22.7518C28.2027 22.1047 27.6781 21.58 27.0309 21.58H22.3434C21.6963 21.58 21.1716 22.1047 21.1716 22.7518V38.0641H18.8279V27.0486C18.8279 26.4015 18.3032 25.8768 17.656 25.8768H12.9686C12.3214 25.8768 11.7967 26.4015 11.7967 27.0486V38.0641H9.453V29.8611C9.453 29.2139 8.92832 28.6892 8.28114 28.6892H3.5937C2.94652 28.6892 2.42184 29.2139 2.42184 29.8611V38.0641H1.17186C0.52468 38.0641 0 38.5888 0 39.236C0 39.8832 0.52468 40.4078 1.17186 40.4078H38.8276C39.4748 40.4078 39.9995 39.8832 39.9995 39.236C39.9995 38.5888 39.4748 38.0641 38.8276 38.0641Z" fill="#5367FF"/>
<path d="M1.17186 25.5881C8.48566 25.5881 16.417 22.9614 23.5048 18.1919C29.0559 14.4564 33.6833 9.68433 36.5576 4.79792L37.6957 9.04528C37.836 9.56886 38.5135 10.0212 39.1309 9.87386C39.7605 9.72371 40.127 9.06379 39.9595 8.43865L38.0406 1.27703C37.873 0.651958 37.2307 0.28087 36.6054 0.448446L29.4437 2.3674C28.8186 2.5349 28.4477 3.17747 28.6152 3.80262C28.7827 4.42777 29.425 4.79885 30.0504 4.6312L34.664 3.39497C31.9824 8.05475 27.5506 12.6444 22.1963 16.2474C15.4911 20.7595 8.0245 23.2444 1.17186 23.2444C0.52468 23.2444 0 23.7691 0 24.4162C0 25.0634 0.52468 25.5881 1.17186 25.5881Z" fill="#5367FF"/>
</g>
<defs>
<clipPath id="clip0_1064_54071">
<rect width="40" height="40" fill="white" transform="translate(0 0.408203)"/>
</clipPath>
</defs>
</svg>
