<svg width="70" height="71" viewBox="0 0 70 71" fill="none" xmlns="http://www.w3.org/2000/svg">
<rect y="0.408203" width="70" height="70" rx="10" fill="#E2F2FF"/>
<g clip-path="url(#clip0_1064_54272)">
<path d="M23.2812 34.041C16.0118 34.041 10.0977 39.9552 10.0977 47.2246C10.0977 54.494 16.0118 60.4082 23.2812 60.4082C30.5507 60.4082 36.4648 54.494 36.4648 47.2246C36.4648 39.9552 30.5507 34.041 23.2812 34.041ZM29.1021 45.6236L22.2662 52.4596C21.9803 52.7456 21.6054 52.8887 21.2305 52.8887C20.8556 52.8887 20.4807 52.7456 20.1947 52.4596L17.265 49.5299C16.693 48.9579 16.693 48.0304 17.265 47.4583C17.837 46.8863 18.7646 46.8863 19.3366 47.4583L21.2305 49.3522L27.0307 43.5521C27.6026 42.9801 28.5302 42.9801 29.1022 43.5521C29.6742 44.1241 29.6742 45.0517 29.1021 45.6236Z" fill="#5367FF"/>
<path d="M48.6719 23.1035C47.8629 23.1035 47.207 22.4477 47.207 21.6387V10.4082H26.2109C23.7878 10.4082 21.8164 12.3796 21.8164 14.8027V31.1786C22.299 31.1349 22.7874 31.1113 23.2812 31.1113C28.2742 31.1113 32.7438 33.3941 35.7018 36.9707H51.6016C52.4105 36.9707 53.0664 37.6266 53.0664 38.4355C53.0664 39.2445 52.4105 39.9004 51.6016 39.9004H37.6316C38.5473 41.6871 39.1377 43.6665 39.3272 45.7598H51.6016C52.4105 45.7598 53.0664 46.4156 53.0664 47.2246C53.0664 48.0336 52.4105 48.6895 51.6016 48.6895H39.3272C38.8892 53.5272 36.3044 57.7545 32.535 60.4082H55.5078C57.931 60.4082 59.9023 58.4368 59.9023 56.0137V23.1035H48.6719ZM51.6016 31.1113H30.1172C29.3082 31.1113 28.6523 30.4555 28.6523 29.6465C28.6523 28.8375 29.3082 28.1816 30.1172 28.1816H51.6016C52.4105 28.1816 53.0664 28.8375 53.0664 29.6465C53.0664 30.4555 52.4105 31.1113 51.6016 31.1113Z" fill="#5367FF"/>
<path d="M50.1367 11.2656V20.1735H59.044L50.1367 11.2656Z" fill="#5367FF"/>
</g>
<defs>
<clipPath id="clip0_1064_54272">
<rect width="50" height="50" fill="white" transform="translate(10 10.4082)"/>
</clipPath>
</defs>
</svg>
