<svg width="70" height="71" viewBox="0 0 70 71" fill="none" xmlns="http://www.w3.org/2000/svg">
<rect y="0.408203" width="70" height="70" rx="10" fill="#E2F2FF"/>
<path d="M29.7916 35.4076V56.2409H18.8541C17.1306 56.2409 15.7291 54.8393 15.7291 53.1159V35.3023C16.0655 35.3711 16.414 35.4076 16.7708 35.4076H29.7916ZM31.8749 35.4076V56.2409H38.1249V35.4076H31.8749ZM53.2291 35.4076H40.2082V56.2409H51.1457C52.8692 56.2409 54.2707 54.8393 54.2707 53.1159V35.3023C53.9343 35.3711 53.5858 35.4076 53.2291 35.4076ZM56.3541 26.0326V30.1992C56.3541 31.9227 54.9525 33.3242 53.2291 33.3242H16.7708C15.0473 33.3242 13.6458 31.9227 13.6458 30.1992V26.0326C13.6458 24.3091 15.0473 22.9076 16.7708 22.9076H26.6765C26.0197 22.0357 25.6249 20.9555 25.6249 19.7826C25.6249 16.9107 27.9614 14.5742 30.8332 14.5742C32.5379 14.5742 34.0494 15.4013 34.9999 16.6711C35.951 15.4013 37.4619 14.5742 39.1666 14.5742C42.0385 14.5742 44.3749 16.9107 44.3749 19.7826C44.3749 20.9555 43.9801 22.0357 43.3233 22.9076H53.2291C54.9525 22.9076 56.3541 24.3091 56.3541 26.0326ZM36.0416 19.7826V22.9076H39.1666C40.89 22.9076 42.2916 21.506 42.2916 19.7826C42.2916 18.0591 40.89 16.6576 39.1666 16.6576C37.4431 16.6576 36.0416 18.0591 36.0416 19.7826ZM30.8332 22.9076H33.9582V19.7826C33.9582 18.0591 32.5567 16.6576 30.8332 16.6576C29.1098 16.6576 27.7082 18.0591 27.7082 19.7826C27.7082 21.506 29.1098 22.9076 30.8332 22.9076Z" fill="#5367FF"/>
</svg>
