<svg width="16" height="11" viewBox="0 0 16 11" fill="none" xmlns="http://www.w3.org/2000/svg">
<path fill-rule="evenodd" clip-rule="evenodd" d="M15.5001 5.4082C15.5001 4.9482 15.1276 4.57487 14.6668 4.57487C14.206 4.57487 13.8335 4.9482 13.8335 5.4082V7.32237L10.2993 3.19903C10.036 2.8907 9.58764 2.81737 9.23764 3.02737L5.68347 5.15987L1.97431 0.708201C1.67931 0.355701 1.15514 0.305701 0.799308 0.601534C0.446808 0.895701 0.398475 1.42153 0.692641 1.77487L4.85931 6.77487C5.12347 7.0907 5.57764 7.1682 5.92931 6.9557L9.49181 4.8182L12.8551 8.74153H10.5001C10.0393 8.74153 9.66681 9.11487 9.66681 9.57487C9.66681 10.0349 10.0393 10.4082 10.5001 10.4082H14.6668C14.7701 10.4082 14.8726 10.3857 14.9701 10.3465C15.011 10.3307 15.0426 10.304 15.0801 10.2832C15.1235 10.2574 15.1701 10.2415 15.2085 10.2074C15.2168 10.2007 15.2201 10.1907 15.2276 10.1832C15.2735 10.1415 15.3051 10.0907 15.3401 10.0399C15.3676 9.99987 15.4001 9.96487 15.4193 9.92153C15.4401 9.87737 15.4468 9.8282 15.4585 9.7807C15.4743 9.72237 15.4918 9.6657 15.4935 9.6057C15.4943 9.59487 15.5001 9.5857 15.5001 9.57487V5.4082Z" fill="#DC2626"/>
</svg>
