<svg width="16" height="11" viewBox="0 0 16 11" fill="none" xmlns="http://www.w3.org/2000/svg">
<path fill-rule="evenodd" clip-rule="evenodd" d="M15.4937 1.2107C15.4921 1.1507 15.4746 1.09404 15.4587 1.03654C15.4462 0.988203 15.4404 0.939036 15.4196 0.89487C15.4004 0.851536 15.3679 0.816536 15.3396 0.776536C15.3046 0.725703 15.2729 0.67487 15.2279 0.633203C15.2204 0.625703 15.2171 0.615703 15.2087 0.609036C15.1787 0.583203 15.1421 0.574036 15.1096 0.553203C15.0596 0.520703 15.0104 0.48737 14.9537 0.465703C14.8979 0.445703 14.8429 0.440703 14.7854 0.43237C14.7454 0.426536 14.7096 0.408203 14.6671 0.408203H10.5004C10.0396 0.408203 9.66708 0.781536 9.66708 1.24154C9.66708 1.70154 10.0396 2.07487 10.5004 2.07487H12.8554L9.49208 5.9982L5.92875 3.8607C5.57625 3.64737 5.12291 3.7257 4.85958 4.04154L0.692913 9.04154C0.398746 9.39487 0.446246 9.9207 0.79958 10.2149C0.956246 10.3449 1.14458 10.4082 1.33291 10.4082C1.57208 10.4082 1.80875 10.3065 1.97375 10.1082L5.68375 5.65654L9.23791 7.78987C9.58708 7.99904 10.0354 7.9257 10.2996 7.61737L13.8337 3.49404V5.4082C13.8337 5.8682 14.2062 6.24154 14.6671 6.24154C15.1279 6.24154 15.5004 5.8682 15.5004 5.4082V1.24154C15.5004 1.2307 15.4946 1.22154 15.4937 1.2107" fill="#03A66D"/>
</svg>
