<svg width="70" height="71" viewBox="0 0 70 71" fill="none" xmlns="http://www.w3.org/2000/svg">
<rect y="0.408203" width="70" height="70" rx="10" fill="#E2F2FF"/>
<path d="M37.3438 52.5957H49.8438V57.2832H37.3438V52.5957Z" fill="#5367FF"/>
<path d="M56.6875 29.8073C56.6853 29.4496 56.5608 29.1034 56.3347 28.8261C56.1086 28.5489 55.7945 28.3573 55.4445 28.2831C55.0336 28.2196 54.6137 28.3129 54.2683 28.5444C53.9229 28.776 53.6771 29.1289 53.5797 29.5331L51.4305 37.5409C51.6768 38.2496 51.6654 39.0224 51.3984 39.7236C51.1313 40.4247 50.6257 41.0093 49.9703 41.3745L45.5953 43.8956C45.5064 43.9469 45.4082 43.9802 45.3064 43.9935C45.2046 44.0069 45.1011 44.0001 45.0019 43.9734C44.9028 43.9468 44.8098 43.9009 44.7284 43.8384C44.647 43.7758 44.5786 43.6979 44.5273 43.6089C44.476 43.52 44.4428 43.4218 44.4294 43.32C44.4161 43.2181 44.4229 43.1147 44.4495 43.0155C44.4761 42.9164 44.522 42.8234 44.5846 42.742C44.6471 42.6605 44.7251 42.5922 44.8141 42.5409L49.1891 40.0198C49.5533 39.822 49.8292 39.4936 49.9612 39.1007C50.0932 38.7078 50.0716 38.2795 49.9008 37.9019C49.7717 37.6436 49.5727 37.4268 49.3264 37.2761C49.0802 37.1254 48.7965 37.0469 48.5078 37.0495C48.2336 37.0496 47.9643 37.1216 47.7266 37.2581L42.3906 40.3886C41.5692 40.8724 40.888 41.5619 40.414 42.389C39.94 43.2161 39.6896 44.1525 39.6875 45.1058V51.0339H47.5V50.1277C47.4996 49.5637 47.6213 49.0063 47.8567 48.4938C48.0922 47.9813 48.4359 47.5259 48.8641 47.1589L52.507 44.0339C52.8662 43.7271 53.1236 43.3184 53.2453 42.862L56.6359 30.2105C56.6708 30.079 56.6882 29.9434 56.6875 29.8073Z" fill="#5367FF"/>
<path d="M14.5555 28.2827C14.2055 28.3569 13.8914 28.5485 13.6653 28.8257C13.4392 29.103 13.3148 29.4492 13.3125 29.8069C13.3116 29.944 13.3289 30.0807 13.3641 30.2132L16.7547 42.8694C16.8761 43.326 17.1336 43.7347 17.493 44.0413L21.136 47.1663C21.5632 47.5325 21.9062 47.9866 22.1417 48.4977C22.3771 49.0087 22.4993 49.5646 22.5 50.1272V51.0335H30.3125V45.1054C30.3107 44.1523 30.0605 43.2161 29.5868 42.3891C29.1131 41.5621 28.4321 40.8728 27.611 40.389L22.2657 37.2538C22.0291 37.1191 21.7614 37.0485 21.4891 37.0491C21.1998 37.0475 20.916 37.1273 20.6698 37.2792C20.4237 37.4312 20.2251 37.6492 20.0969 37.9085C19.9261 38.2862 19.9047 38.7146 20.0368 39.1075C20.169 39.5004 20.445 39.8288 20.8094 40.0265L25.1844 42.5476C25.2734 42.5989 25.3513 42.6672 25.4139 42.7486C25.4764 42.83 25.5223 42.923 25.549 43.0222C25.5756 43.1213 25.5824 43.2248 25.5691 43.3266C25.5557 43.4284 25.5224 43.5266 25.4711 43.6155C25.4198 43.7045 25.3515 43.7824 25.2701 43.845C25.1887 43.9075 25.0957 43.9534 24.9965 43.9801C24.8974 44.0067 24.7939 44.0135 24.6921 44.0002C24.5903 43.9868 24.4921 43.9535 24.4032 43.9022L20.0282 41.3811C19.3726 41.0159 18.8669 40.4312 18.5998 39.7299C18.3327 39.0286 18.3215 38.2556 18.568 37.5468L16.4204 29.5358C16.3231 29.1313 16.0775 28.778 15.7321 28.5459C15.3868 28.3138 14.9668 28.2199 14.5555 28.2827Z" fill="#5367FF"/>
<path d="M20.1562 52.5957H32.6562V57.2832H20.1562V52.5957Z" fill="#5367FF"/>
<path d="M36.4141 14.3328L35 13.625L33.5938 14.3281C32.1081 15.0745 30.4615 15.4439 28.7994 15.4037C27.1372 15.3635 25.5104 14.915 24.0625 14.0977V22.5953C24.0591 25.8528 24.9428 29.0497 26.6188 31.8429C28.2949 34.6362 30.6999 36.9202 33.5758 38.45L35 39.2102L36.4243 38.45C39.3003 36.9204 41.7054 34.6363 43.3815 31.8431C45.0575 29.0498 45.9411 25.8528 45.9375 22.5953V14.0977C44.491 14.9144 42.8659 15.3631 41.2052 15.4041C39.5445 15.4451 37.8992 15.0772 36.4141 14.3328ZM43.4289 16.7016C43.5429 16.677 43.661 16.6782 43.7745 16.7052C43.8879 16.7321 43.9939 16.7842 44.0846 16.8574C44.1754 16.9307 44.2485 17.0234 44.2988 17.1286C44.349 17.2338 44.3751 17.349 44.375 17.4656V22.5953C44.3784 25.5695 43.5716 28.4885 42.0413 31.0388C40.511 33.5891 38.315 35.6745 35.6891 37.0711L35.3672 37.243C35.2541 37.3033 35.1279 37.3348 34.9996 37.3348C34.8714 37.3348 34.7452 37.3033 34.6321 37.243L34.311 37.0711C31.685 35.6745 29.4891 33.5891 27.9588 31.0388C26.4285 28.4885 25.6217 25.5695 25.625 22.5953V17.4648C25.625 17.3482 25.651 17.2331 25.7013 17.1278C25.7515 17.0226 25.8247 16.9299 25.9154 16.8566C26.0062 16.7834 26.1122 16.7313 26.2256 16.7044C26.3391 16.6774 26.4571 16.6762 26.5711 16.7008C29.1792 17.2567 31.8985 16.9136 34.2868 15.7273L34.6477 15.5469C34.7567 15.4919 34.8771 15.4633 34.9993 15.4633C35.1214 15.4633 35.2418 15.4919 35.3508 15.5469L35.7196 15.7305C38.1064 16.9142 40.8232 17.2564 43.4289 16.7016Z" fill="#5367FF"/>
<path d="M35 17.1191L34.9883 17.1254C32.5753 18.3248 29.8566 18.7683 27.1875 18.398V22.5957C27.1846 25.2778 27.9097 27.9103 29.2856 30.2126C30.6615 32.5149 32.6365 34.4005 35 35.6684C37.3635 34.4005 39.3385 32.5149 40.7144 30.2126C42.0903 27.9103 42.8154 25.2778 42.8125 22.5957V18.3988C40.145 18.7694 37.4278 18.3261 35.0164 17.127L35 17.1191ZM40.5266 21.2902C40.673 21.4367 40.7553 21.6354 40.7553 21.8426C40.7553 22.0497 40.673 22.2484 40.5266 22.3949L33.9922 28.9293C33.8457 29.0758 33.647 29.158 33.4399 29.158C33.2327 29.158 33.034 29.0758 32.8875 28.9293L29.8961 25.9379C29.7538 25.7905 29.675 25.5932 29.6768 25.3884C29.6786 25.1835 29.7608 24.9876 29.9056 24.8427C30.0505 24.6979 30.2464 24.6157 30.4513 24.6139C30.6561 24.6121 30.8534 24.6909 31.0008 24.8332L33.4375 27.2723L39.4195 21.2902C39.566 21.1438 39.7647 21.0615 39.9719 21.0615C40.179 21.0615 40.3777 21.1438 40.5242 21.2902H40.5266Z" fill="#5367FF"/>
</svg>
