<svg id="iota" enable-background="new 0 0 360 360" viewBox="0 0 360 360" xmlns="http://www.w3.org/2000/svg"><circle cx="180" cy="180" fill="#262964" r="168"/><circle cx="180" cy="180" fill="#555abe" r="144"/><g fill="#fff"><path d="m225.07 106.271c6.054 0 10.973-4.999 10.973-11.14s-4.919-11.132-10.973-11.132c-6.054.032-10.973 5.022-10.973 11.163 0 6.143 4.919 11.109 10.973 11.109z"/><path d="m228.307 135.215c5.17-.039 9.33-4.263 9.291-9.433 0-5.189-4.158-9.434-9.291-9.434s-9.291 4.213-9.291 9.434 4.15 9.433 9.291 9.433z"/><ellipse cx="253.816" cy="129.495" rx="9.267" ry="9.41"/><ellipse cx="250.753" cy="155.63" rx="7.926" ry="8.037"/><path d="m271.176 171.697c4.411 0 7.982-3.626 7.982-8.093s-3.57-8.093-7.982-8.093c-4.439.031-8.012 3.654-7.982 8.093 0 4.467 3.579 8.093 7.982 8.093z"/><path d="m225.086 160.319c4.513-.026 8.151-3.706 8.125-8.22v-.016c0-4.546-3.626-8.236-8.125-8.236s-8.125 3.681-8.125 8.236c.001 4.523 3.634 8.236 8.125 8.236z"/><path d="m217.723 180.02c3.769 0 6.808-3.094 6.808-6.895.031-3.777-3.006-6.864-6.783-6.895h-.025c-3.769 0-6.808 3.094-6.808 6.895s3.039 6.895 6.808 6.895z"/><path d="m243.271 183.503c3.755-.026 6.778-3.09 6.752-6.845v-.017c0-3.793-3.015-6.863-6.752-6.863s-6.752 3.071-6.752 6.863c-.049 3.741 2.945 6.814 6.687 6.862z"/><path d="m263.638 191.501c3.769 0 6.808-3.094 6.808-6.919 0-3.824-3.039-6.919-6.808-6.919s-6.808 3.094-6.808 6.919c-.04 3.781 2.994 6.879 6.775 6.919z"/><ellipse cx="253.578" cy="200.617" rx="5.752" ry="5.832"/><ellipse cx="233.116" cy="192.604" rx="5.887" ry="5.974"/><path d="m207.599 194.928c3.269-.051 5.877-2.743 5.826-6.012-.05-3.193-2.625-5.771-5.818-5.826h-.008c-3.269.051-5.877 2.743-5.826 6.012.05 3.194 2.625 5.771 5.818 5.826z"/><path d="m221.786 208.972c2.817 0 5.078-2.317 5.078-5.133.026-2.809-2.229-5.107-5.037-5.133h-.04c-2.817 0-5.078 2.317-5.078 5.133-.031 2.804 2.217 5.102 5.022 5.133z"/><path d="m242.24 216.977c2.817 0 5.133-2.317 5.133-5.189s-2.285-5.189-5.133-5.189c-2.866 0-5.189 2.323-5.189 5.189s2.323 5.189 5.189 5.189z"/><path d="m230.719 222.984c2.23 0 4.046-1.841 4.046-4.102.013-2.249-1.797-4.085-4.046-4.102-2.23 0-4.046 1.841-4.046 4.102-.004 2.245 1.801 4.075 4.046 4.102z"/><path d="m219.802 226.205c2.033-.013 3.67-1.671 3.658-3.704v-.01c0-2.063-1.65-3.713-3.658-3.713-2.033.013-3.67 1.671-3.658 3.704v.01c-.035 2.015 1.57 3.677 3.585 3.712z"/><path d="m210.241 215.525c2.404 0 4.356-1.984 4.356-4.411s-1.952-4.411-4.356-4.411-4.356 1.984-4.356 4.411c-.005 2.417 1.94 4.386 4.356 4.411z"/><path d="m196.214 205.409c2.793 0 5.078-2.285 5.078-5.133s-2.261-5.133-5.078-5.133c-2.793 0-5.078 2.285-5.078 5.133-.005 2.815 2.262 5.107 5.078 5.133z"/><path d="m237.813 269.724c6.03 0 10.917-4.967 10.917-11.084s-4.887-11.084-10.917-11.084-10.917 4.967-10.917 11.084c-.001 6.117 4.887 11.084 10.917 11.084z"/><ellipse cx="210.083" cy="246.461" rx="9.101" ry="9.235"/><path d="m194.238 276c5.078 0 9.18-4.158 9.18-9.323 0-5.133-4.102-9.323-9.18-9.323s-9.18 4.158-9.18 9.323c-.04 5.109 4.07 9.283 9.18 9.323z"/><path d="m189.469 238.59c4.426-.031 7.989-3.643 7.958-8.069.031-4.426-3.532-8.038-7.958-8.069-4.426.031-7.989 3.643-7.958 8.069.008 4.443 3.579 8.069 7.958 8.069z"/><path d="m173.665 259.172c4.38 0 7.926-3.602 7.926-8.037s-3.547-8.037-7.926-8.037c-4.38 0-7.926 3.602-7.926 8.037-.044 4.395 3.483 7.993 7.878 8.037z"/><path d="m156.63 273.136c4.38 0 7.902-3.602 7.902-8.014 0-4.435-3.547-8.014-7.902-8.014-4.38 0-7.902 3.602-7.902 8.014s3.546 8.014 7.902 8.014z"/><path d="m142.451 254.958c3.749-.034 6.766-3.09 6.752-6.839 0-3.769-3.015-6.839-6.752-6.839-3.777.058-6.793 3.166-6.735 6.944.057 3.696 3.039 6.678 6.735 6.734z"/><path d="m159.518 240.931c3.752-.026 6.774-3.087 6.752-6.839 0-3.793-3.015-6.839-6.752-6.839-3.777.051-6.798 3.154-6.748 6.931.049 3.697 3.028 6.685 6.724 6.748h.024z"/><path d="m175.442 220.357c3.755-.026 6.778-3.091 6.752-6.845v-.017c0-3.793-3.015-6.863-6.752-6.863-3.755.026-6.778 3.091-6.752 6.845v.017c0 3.793 3.015 6.863 6.752 6.863z"/><ellipse cx="151.084" cy="217.247" rx="5.863" ry="5.943"/><path d="m134.105 237.162c3.225-.017 5.825-2.646 5.808-5.871v-.016c.031-3.22-2.555-5.856-5.775-5.887h-.033c-3.225.017-5.825 2.646-5.808 5.871v.016c-.022 3.229 2.578 5.865 5.808 5.887-.001 0-.001 0 0 0z"/><path d="m130.201 220.786c2.786-.022 5.031-2.291 5.022-5.078 0-2.817-2.261-5.078-5.022-5.078s-5.022 2.285-5.022 5.078c0 2.817 2.261 5.078 5.022 5.078z"/><path d="m130.058 206.417c2.397-.022 4.322-1.982 4.3-4.379 0-2.404-1.928-4.38-4.3-4.38s-4.3 1.952-4.3 4.38c0 2.427 1.928 4.379 4.3 4.379z"/><ellipse cx="132.422" cy="190.755" rx="3.658" ry="3.713"/><path d="m147.061 192.469c2.404 0 4.356-1.984 4.356-4.411s-1.952-4.411-4.356-4.411-4.356 1.984-4.356 4.411c-.009 2.418 1.938 4.389 4.356 4.411z"/><path d="m163.128 186.209c2.793 0 5.078-2.317 5.078-5.133.026-2.809-2.229-5.107-5.037-5.133h-.04c-2.793 0-5.078 2.317-5.078 5.133-.022 2.813 2.241 5.111 5.054 5.133z"/><path d="m166.952 202.505c3.184-.007 5.76-2.593 5.753-5.777s-2.593-5.76-5.777-5.753-5.76 2.593-5.753 5.777c.007 3.175 2.578 5.747 5.753 5.753z"/><path d="m147.267 206.845c2.793 0 5.022-2.285 5.022-5.11s-2.261-5.11-5.022-5.11c-2.791.017-5.039 2.293-5.022 5.084v.001.025c-.04 2.782 2.183 5.069 4.965 5.109z"/><path d="m91.728 199.268c5.998 0 10.886-4.943 10.886-11.029s-4.887-11.029-10.886-11.029c-5.998 0-10.886 4.951-10.886 11.036s4.888 11.022 10.886 11.022z"/><path d="m116.435 179.576c5.165 0 9.323-4.245 9.323-9.466s-4.189-9.466-9.323-9.466c-5.184.035-9.357 4.265-9.323 9.449v.017c0 5.252 4.19 9.466 9.323 9.466z"/><path d="m106.795 155.297c5.133 0 9.267-4.213 9.267-9.41s-4.158-9.41-9.267-9.41c-5.153.035-9.302 4.239-9.267 9.392v.001.017c-.052 5.144 4.075 9.357 9.219 9.41z"/><path d="m130.613 143.792c4.38 0 7.958-3.602 7.958-8.069s-3.57-8.069-7.958-8.069-7.958 3.602-7.958 8.069 3.579 8.069 7.958 8.069z"/><ellipse cx="140.349" cy="159.922" rx="7.982" ry="8.093"/><path d="m162.025 162.985c3.777-.031 6.814-3.117 6.784-6.894.057-3.747-2.933-6.83-6.68-6.888-3.747-.057-6.83 2.933-6.888 6.68v.208c-.044 3.764 2.972 6.85 6.735 6.895z"/><path d="m180.75 163.049c3.237 0 5.863-2.65 5.863-5.919s-2.626-5.919-5.863-5.919c-3.269 0-5.919 2.65-5.919 5.919s2.65 5.919 5.919 5.919z"/><path d="m196.221 166.611c2.706 0 4.943-2.23 4.943-4.999s-2.206-4.999-4.943-4.999c-2.743.021-4.952 2.256-4.943 4.999.032 2.738 2.23 4.999 4.943 4.999z"/><path d="m198.237 148.378c2.39-.017 4.314-1.966 4.3-4.356 0-2.404-1.928-4.356-4.3-4.356s-4.3 1.952-4.3 4.356c-.014 2.39 1.91 4.339 4.3 4.356z"/><path d="m186.335 142.412c2.737-.007 4.95-2.231 4.943-4.968s-2.231-4.95-4.968-4.943-4.95 2.231-4.943 4.968c.007 2.727 2.216 4.937 4.943 4.943z"/><path d="m171.046 138.794c3.228-.026 5.825-2.659 5.808-5.887 0-3.269-2.594-5.887-5.808-5.887-3.213 0-5.808 2.65-5.808 5.887-.026 3.225 2.567 5.861 5.792 5.887z"/><path d="m152.353 138.817c3.769 0 6.808-3.094 6.808-6.895s-3.039-6.895-6.808-6.895-6.808 3.094-6.808 6.895c-.013 3.78 3.029 6.861 6.808 6.895z"/><ellipse cx="127.178" cy="113.761" rx="7.704" ry="7.815"/><ellipse cx="148.846" cy="109.945" rx="6.808" ry="6.895"/><path d="m167.563 116.927c3.237 0 5.863-2.65 5.863-5.943s-2.626-5.943-5.863-5.943c-3.256.017-5.881 2.671-5.863 5.927v.016c-.014 3.257 2.606 5.913 5.863 5.943z"/><path d="m182.924 120.466c2.737 0 4.943-2.23 4.943-4.999s-2.206-4.999-4.943-4.999c-2.761 0-4.999 2.238-4.999 4.999s2.238 4.999 4.999 4.999z"/><path d="m194.722 126.591c2.451-.017 4.425-2.016 4.411-4.467 0-2.483-1.984-4.467-4.411-4.467s-4.411 2.007-4.411 4.467c0 2.459 1.983 4.467 4.411 4.467z"/><path d="m203.378 133.621c2.016-.013 3.639-1.658 3.626-3.673v-.008c.018-2.016-1.602-3.664-3.618-3.681h-.008c-2.016.013-3.639 1.658-3.626 3.673v.008c-.031 2.002 1.567 3.65 3.569 3.681h.002.057z"/></g></svg>