<svg width="48" height="48" fill="none" xmlns="http://www.w3.org/2000/svg"><circle cx="24" cy="24" r="24" fill="#BF360C"/><path d="M26.745 12.97h3.464v16.328c0 1.477-.293 2.74-.877 3.79a5.854 5.854 0 01-2.44 2.406c-1.05.547-2.28.82-3.689.82-1.297 0-2.463-.235-3.497-.708-1.027-.472-1.84-1.158-2.44-2.058-.593-.907-.889-2.009-.889-3.306h3.452c0 .638.147 1.189.439 1.653.3.465.708.829 1.226 1.091.524.255 1.124.383 1.799.383.735 0 1.357-.154 1.867-.461.517-.315.91-.776 1.18-1.384.27-.607.405-1.349.405-2.226V12.97z" fill="#fff"/></svg>