<svg width="70" height="71" viewBox="0 0 70 71" fill="none" xmlns="http://www.w3.org/2000/svg">
<rect y="0.408203" width="70" height="70" rx="10" fill="#E2F2FF"/>
<g clip-path="url(#clip0_1064_54260)">
<path d="M43.7841 48.5928H40.9755V44.748C37.1349 46.0143 33.007 46.0066 29.2568 44.8232V48.5928H26.206C24.9083 48.5928 24.2513 50.1624 25.163 51.0869L33.9316 59.9736C34.5036 60.5538 35.44 60.5542 36.0146 59.9756L44.8241 51.0889C45.7394 50.1672 45.0841 48.5928 43.7841 48.5928Z" fill="#5367FF"/>
<path d="M21.0254 13.5664C14.7773 14.6084 10 20.0527 10 26.5908C10 33.1299 14.7773 38.5723 21.0244 39.6143C14.1722 32.2662 14.1765 20.9108 21.0254 13.5664Z" fill="#5367FF"/>
<path d="M48.9746 13.5664C55.8145 20.9011 55.8375 32.2559 48.9756 39.6143C55.2227 38.5723 60 33.1299 60 26.5908C60 20.0527 55.2227 14.6084 48.9746 13.5664Z" fill="#5367FF"/>
<path d="M35 10.4082C26.0768 10.4082 18.8172 17.6678 18.8172 26.591C18.8172 35.5143 26.0768 42.7738 35 42.7738C43.9233 42.7738 51.1828 35.5143 51.1828 26.591C51.1828 17.6678 43.9233 10.4082 35 10.4082ZM33.8224 24.3921L37.4644 26.1729C38.6709 26.7628 39.4506 28.0119 39.4506 29.355C39.4506 31.0992 38.183 32.552 36.5209 32.8431V33.9274C36.5209 34.7364 35.8651 35.3923 35.0561 35.3923C34.2471 35.3923 33.5912 34.7364 33.5912 33.9274V32.8972H32.0238C31.2149 32.8972 30.559 32.2413 30.559 31.4323C30.559 30.6233 31.2149 29.9675 32.0238 29.9675H35.9084C36.5551 29.9675 36.7582 29.0886 36.1776 28.8047L32.5356 27.0239C29.4951 25.5373 30.0508 20.8564 33.479 20.256V19.2693C33.479 18.4604 34.1349 17.8045 34.9439 17.8045C35.7528 17.8045 36.4087 18.4604 36.4087 19.2693V20.202H37.9859C38.7948 20.202 39.4507 20.8578 39.4507 21.6668C39.4507 22.4758 38.7948 23.1316 37.9859 23.1316H34.0915C33.4073 23.1316 33.2595 24.1168 33.8224 24.3921Z" fill="#5367FF"/>
</g>
<defs>
<clipPath id="clip0_1064_54260">
<rect width="50" height="50" fill="white" transform="translate(10 10.4082)"/>
</clipPath>
</defs>
</svg>
