<svg width="70" height="71" viewBox="0 0 70 71" fill="none" xmlns="http://www.w3.org/2000/svg">
<rect y="0.408203" width="70" height="70" rx="10" fill="#E2F2FF"/>
<path d="M58.834 46.2324C58.6261 45.6441 58.1942 45.1617 57.6322 44.8905C57.0703 44.6193 56.4239 44.5812 55.834 44.7845L49.334 46.7949C47.6881 48.2949 47.0631 47.9095 35.0006 47.9095C34.7244 47.9095 34.4594 47.7998 34.2641 47.6044C34.0687 47.4091 33.959 47.1441 33.959 46.8678C33.959 46.5916 34.0687 46.3266 34.2641 46.1313C34.4594 45.9359 34.7244 45.8262 35.0006 45.8262C47.5006 45.8262 47.0736 46.0657 47.9902 45.1491C48.3395 44.7633 48.5358 44.2632 48.5423 43.7428C48.5423 43.1903 48.3228 42.6604 47.9321 42.2697C47.5414 41.879 47.0115 41.6595 46.459 41.6595H35.3131C33.8652 41.6595 32.6569 39.5762 28.4381 39.5762H21.459V50.4303L22.8027 51.1907C26.6247 53.3941 30.8999 54.6945 35.3015 54.9924C39.7031 55.2903 44.1145 54.5778 48.1986 52.9095L57.5736 49.1282C58.1052 48.8876 58.5285 48.4581 58.7614 47.923C58.9943 47.388 59.0202 46.7855 58.834 46.2324Z" fill="#5367FF"/>
<path d="M11.042 53.1172H19.3753V37.4922H11.042V53.1172ZM14.2503 48.5547C14.3091 48.4122 14.3988 48.2845 14.513 48.1808C14.6271 48.0771 14.7628 48.0001 14.9104 47.9553C15.0579 47.9105 15.2135 47.8989 15.366 47.9215C15.5185 47.9441 15.6641 48.0003 15.7923 48.086C15.9205 48.1718 16.028 48.2848 16.1072 48.4172C16.1863 48.5495 16.2351 48.6977 16.25 48.8512C16.265 49.0046 16.2456 49.1595 16.1934 49.3046C16.1413 49.4496 16.0575 49.5813 15.9482 49.6901C15.7777 49.8599 15.5536 49.9654 15.3141 49.9887C15.0745 50.012 14.8343 49.9516 14.6342 49.8178C14.4342 49.6841 14.2866 49.4851 14.2166 49.2549C14.1466 49.0246 14.1585 48.7772 14.2503 48.5547Z" fill="#5367FF"/>
<path d="M42.2917 36.4505C44.3519 36.4505 46.3658 35.8396 48.0789 34.695C49.7919 33.5504 51.127 31.9235 51.9154 30.0201C52.7038 28.1167 52.9101 26.0223 52.5082 24.0017C52.1063 21.981 51.1142 20.125 49.6574 18.6682C48.2006 17.2114 46.3445 16.2193 44.3239 15.8173C42.3032 15.4154 40.2088 15.6217 38.3054 16.4101C36.402 17.1985 34.7751 18.5337 33.6305 20.2467C32.4859 21.9597 31.875 23.9736 31.875 26.0339C31.875 28.7965 32.9725 31.4461 34.926 33.3996C36.8795 35.3531 39.529 36.4505 42.2917 36.4505ZM43.3333 27.0755H41.25C40.4212 27.0755 39.6263 26.7463 39.0403 26.1602C38.4542 25.5742 38.125 24.7793 38.125 23.9505C38.125 23.1217 38.4542 22.3269 39.0403 21.7408C39.6263 21.1548 40.4212 20.8255 41.25 20.8255V19.7839C41.25 19.5076 41.3597 19.2426 41.5551 19.0473C41.7504 18.8519 42.0154 18.7422 42.2917 18.7422C42.5679 18.7422 42.8329 18.8519 43.0282 19.0473C43.2236 19.2426 43.3333 19.5076 43.3333 19.7839V20.8255H45.4167C45.6929 20.8255 45.9579 20.9353 46.1532 21.1306C46.3486 21.326 46.4583 21.5909 46.4583 21.8672C46.4583 22.1435 46.3486 22.4084 46.1532 22.6038C45.9579 22.7991 45.6929 22.9089 45.4167 22.9089H41.25C40.9737 22.9089 40.7088 23.0186 40.5134 23.214C40.3181 23.4093 40.2083 23.6743 40.2083 23.9505C40.2083 24.2268 40.3181 24.4917 40.5134 24.6871C40.7088 24.8824 40.9737 24.9922 41.25 24.9922H43.3333C44.1621 24.9922 44.957 25.3214 45.543 25.9075C46.1291 26.4935 46.4583 27.2884 46.4583 28.1172C46.4583 28.946 46.1291 29.7409 45.543 30.3269C44.957 30.913 44.1621 31.2422 43.3333 31.2422V32.2839C43.3333 32.5601 43.2236 32.8251 43.0282 33.0204C42.8329 33.2158 42.5679 33.3255 42.2917 33.3255C42.0154 33.3255 41.7504 33.2158 41.5551 33.0204C41.3597 32.8251 41.25 32.5601 41.25 32.2839V31.2422H39.1667C38.8904 31.2422 38.6254 31.1324 38.4301 30.9371C38.2347 30.7417 38.125 30.4768 38.125 30.2005C38.125 29.9243 38.2347 29.6593 38.4301 29.464C38.6254 29.2686 38.8904 29.1589 39.1667 29.1589H43.3333C43.6096 29.1589 43.8746 29.0491 44.0699 28.8538C44.2653 28.6584 44.375 28.3935 44.375 28.1172C44.375 27.8409 44.2653 27.576 44.0699 27.3806C43.8746 27.1853 43.6096 27.0755 43.3333 27.0755Z" fill="#5367FF"/>
</svg>
