<svg width="48" height="48" fill="none" xmlns="http://www.w3.org/2000/svg"><circle cx="24" cy="24" r="24" fill="#F50076"/><path d="M28.901 19.02c-.12-1.065-.614-1.89-1.484-2.474-.87-.593-1.964-.889-3.284-.889-.944 0-1.761.15-2.45.45-.69.293-1.227.697-1.609 1.215a2.867 2.867 0 00-.562 1.743c0 .547.127 1.02.382 1.416.263.398.604.731 1.023 1.001a7.73 7.73 0 001.372.664c.488.172.956.315 1.406.427l2.249.585c.735.18 1.488.423 2.26.73a9.063 9.063 0 012.148 1.215 5.819 5.819 0 011.597 1.867c.412.742.619 1.63.619 2.665 0 1.305-.338 2.463-1.013 3.475-.667 1.012-1.638 1.81-2.912 2.395-1.267.585-2.8.877-4.6.877-1.724 0-3.216-.273-4.475-.82-1.26-.548-2.245-1.324-2.958-2.328-.712-1.012-1.105-2.212-1.18-3.599h3.486c.067.832.337 1.526.81 2.08.48.548 1.09.956 1.832 1.226.75.263 1.571.394 2.463.394.982 0 1.856-.154 2.62-.461.772-.315 1.38-.75 1.822-1.305.442-.562.663-1.218.663-1.968 0-.682-.195-1.24-.584-1.675-.383-.435-.904-.795-1.563-1.08a15.274 15.274 0 00-2.216-.753l-2.721-.742c-1.844-.503-3.306-1.241-4.386-2.216-1.072-.974-1.608-2.264-1.608-3.868 0-1.327.36-2.485 1.08-3.475.72-.99 1.694-1.758 2.924-2.305 1.229-.555 2.616-.832 4.16-.832 1.56 0 2.935.274 4.127.82 1.2.548 2.144 1.301 2.834 2.261.69.952 1.05 2.047 1.08 3.284H28.9z" fill="#fff"/></svg>