<svg width="70" height="71" viewBox="0 0 70 71" fill="none" xmlns="http://www.w3.org/2000/svg">
<rect y="0.408203" width="70" height="70" rx="10" fill="#E2F2FF"/>
<g clip-path="url(#clip0_1064_54290)">
<path d="M37.7203 12.0078C30.1887 12.0078 23.5227 15.7677 19.4878 21.5054C20.3229 22.0501 21.1369 22.7972 21.9241 23.7576C24.9343 19.2567 29.8013 16.0988 35.4326 15.42L37.72 19.2907L40.0073 15.4199C48.6635 16.4631 55.5441 23.3434 56.5878 31.9995L52.7165 34.2871L56.5879 36.5749C55.8902 42.3621 52.5758 47.3446 47.8737 50.3308C48.1732 51.0135 48.342 51.7116 48.3718 52.4314C48.3938 52.9574 48.3395 53.4544 48.2304 53.9262C55.2295 50.1654 60 42.7742 60 34.2875C60 22.0022 50.0057 12.0078 37.7203 12.0078ZM43.4058 48.7004C38.2698 44.5727 36.8336 46.6017 34.5032 48.9317C32.8763 50.5593 28.7591 47.1607 25.2041 43.6055C21.6489 40.0499 18.2509 35.9334 19.8777 34.3062C22.2083 31.976 24.2367 30.539 20.1079 25.4044C15.9804 20.2679 13.2289 24.2113 10.9715 26.4689C8.36529 29.0742 10.8342 38.7831 20.4298 48.3802C30.0267 57.9759 39.7355 60.4432 42.3401 57.8389C44.5973 55.5812 48.542 52.83 43.4058 48.7004ZM27.7636 37.7742C27.7636 33.2089 33.1084 32.3956 33.1084 30.614C33.1084 29.7496 32.4164 29.3867 31.7763 29.3867C30.6001 29.3867 29.9435 30.7006 29.9435 30.7006L27.695 29.1961C27.695 29.1961 28.8366 26.5327 32.0534 26.5327C34.0767 26.5327 36.2732 27.6916 36.2732 30.3203C36.2732 34.1772 31.2921 34.9211 31.2055 36.5122H36.4637V39.1063H27.9022C27.8155 38.6221 27.7636 38.19 27.7636 37.7742ZM37.7281 34.2812L42.5021 26.7399H46.2031V33.6065H47.673V36.1139H46.2031V39.1064H43.2107V36.1139H37.7281V34.2812H37.7281ZM43.2106 33.6064V30.8392C43.2106 30.1645 43.3145 29.4552 43.3145 29.4552H43.2799C43.2799 29.4552 43.0208 30.2165 42.6745 30.7353L40.8071 33.5719V33.6066L43.2106 33.6064Z" fill="#5367FF"/>
</g>
<defs>
<clipPath id="clip0_1064_54290">
<rect width="50" height="50" fill="white" transform="translate(10 10.4082)"/>
</clipPath>
</defs>
</svg>
