<svg width="70" height="71" viewBox="0 0 70 71" fill="none" xmlns="http://www.w3.org/2000/svg">
<rect y="0.408203" width="70" height="70" rx="10" fill="#E2F2FF"/>
<path d="M45.9375 11.5801H38.125C37.4778 11.5801 36.9531 12.1047 36.9531 12.752V15.0957C36.9531 15.7429 37.4778 16.2676 38.125 16.2676H45.9375C46.5847 16.2676 47.1094 15.7429 47.1094 15.0957V12.752C47.1094 12.1047 46.5847 11.5801 45.9375 11.5801Z" fill="#5367FF"/>
<path d="M23.2812 28.7676H15.4688C15.1579 28.7676 14.8599 28.891 14.6401 29.1108C14.4203 29.3306 14.2969 29.6287 14.2969 29.9395C14.2969 30.2503 14.4203 30.5483 14.6401 30.7681C14.8599 30.9879 15.1579 31.1113 15.4688 31.1113H23.2812C23.5921 31.1113 23.8901 30.9879 24.1099 30.7681C24.3297 30.5483 24.4531 30.2503 24.4531 29.9395C24.4531 29.6287 24.3297 29.3306 24.1099 29.1108C23.8901 28.891 23.5921 28.7676 23.2812 28.7676Z" fill="#5367FF"/>
<path d="M22.8906 39.3145C22.8906 39.0037 22.7672 38.7056 22.5474 38.4858C22.3276 38.266 22.0296 38.1426 21.7188 38.1426H13.9062C13.5954 38.1426 13.2974 38.266 13.0776 38.4858C12.8578 38.7056 12.7344 39.0037 12.7344 39.3145C12.7344 39.6253 12.8578 39.9233 13.0776 40.1431C13.2974 40.3629 13.5954 40.4863 13.9062 40.4863H21.7188C22.0296 40.4863 22.3276 40.3629 22.5474 40.1431C22.7672 39.9233 22.8906 39.6253 22.8906 39.3145Z" fill="#5367FF"/>
<path d="M22.5 42.8301H17.0312C16.7204 42.8301 16.4224 42.9535 16.2026 43.1733C15.9828 43.3931 15.8594 43.6912 15.8594 44.002C15.8594 44.3128 15.9828 44.6108 16.2026 44.8306C16.4224 45.0504 16.7204 45.1738 17.0312 45.1738H22.5C22.8108 45.1738 23.1089 45.0504 23.3286 44.8306C23.5484 44.6108 23.6719 44.3128 23.6719 44.002C23.6719 43.6912 23.5484 43.3931 23.3286 43.1733C23.1089 42.9535 22.8108 42.8301 22.5 42.8301Z" fill="#5367FF"/>
<path d="M22.8906 34.627C22.8906 34.3162 22.7672 34.0181 22.5474 33.7983C22.3276 33.5785 22.0296 33.4551 21.7188 33.4551H11.5625C11.2517 33.4551 10.9536 33.5785 10.7339 33.7983C10.5141 34.0181 10.3906 34.3162 10.3906 34.627C10.3906 34.9378 10.5141 35.2358 10.7339 35.4556C10.9536 35.6754 11.2517 35.7988 11.5625 35.7988H21.7188C22.0296 35.7988 22.3276 35.6754 22.5474 35.4556C22.7672 35.2358 22.8906 34.9378 22.8906 34.627Z" fill="#5367FF"/>
<path d="M42.0312 36.9707V23.6895C34.7079 23.6895 28.75 29.6474 28.75 36.9707C28.75 44.294 34.7079 50.252 42.0312 50.252C49.3546 50.252 55.3125 44.294 55.3125 36.9707H42.0312Z" fill="#5367FF"/>
<path d="M54.8846 24.9935L56.1411 23.7368C56.2514 23.6283 56.3391 23.4991 56.3992 23.3565C56.4592 23.214 56.4905 23.0609 56.4911 22.9062C56.4917 22.7515 56.4617 22.5982 56.4028 22.4552C56.3439 22.3122 56.2573 22.1822 56.1479 22.0728C56.0385 21.9634 55.9085 21.8768 55.7655 21.8179C55.6225 21.759 55.4692 21.729 55.3145 21.7296C55.1598 21.7302 55.0067 21.7615 54.8642 21.8215C54.7216 21.8816 54.5924 21.9693 54.4839 22.0796L53.1761 23.3873C50.6575 21.3125 47.6091 19.983 44.375 19.5488V17.4395H39.6875V19.5488C36.4535 19.9829 33.4051 21.3122 30.8864 23.3867L29.5786 22.079C29.4701 21.9687 29.3409 21.881 29.1983 21.821C29.0558 21.7609 28.9027 21.7296 28.748 21.729C28.5933 21.7284 28.44 21.7584 28.297 21.8173C28.154 21.8762 28.024 21.9628 27.9146 22.0722C27.8052 22.1816 27.7186 22.3116 27.6597 22.4546C27.6008 22.5977 27.5708 22.7509 27.5714 22.9056C27.572 23.0603 27.6033 23.2134 27.6633 23.3559C27.7234 23.4985 27.8111 23.6277 27.9214 23.7362L29.1779 24.9929C26.1391 28.2406 24.4499 32.523 24.4531 36.9707C24.4531 46.6633 32.3387 54.5488 42.0312 54.5488C51.7238 54.5488 59.6094 46.6633 59.6094 36.9707C59.6125 32.5232 57.9233 28.2411 54.8846 24.9935ZM42.0312 51.4238C39.1727 51.4238 36.3783 50.5762 34.0015 48.988C31.6247 47.3999 29.7722 45.1426 28.6783 42.5017C27.5844 39.8607 27.2982 36.9547 27.8558 34.151C28.4135 31.3474 29.79 28.7721 31.8113 26.7508C33.8327 24.7295 36.408 23.353 39.2116 22.7953C42.0152 22.2376 44.9213 22.5238 47.5622 23.6178C50.2032 24.7117 52.4604 26.5642 54.0486 28.941C55.6367 31.3178 56.4844 34.1121 56.4844 36.9707C56.4844 38.8687 56.1105 40.7481 55.3842 42.5017C54.6579 44.2552 53.5932 45.8485 52.2511 47.1906C50.909 48.5327 49.3158 49.5973 47.5622 50.3237C45.8087 51.05 43.9293 51.4238 42.0312 51.4238Z" fill="#5367FF"/>
</svg>
