<svg width="40" height="41" viewBox="0 0 40 41" fill="none" xmlns="http://www.w3.org/2000/svg">
<path fill-rule="evenodd" clip-rule="evenodd" d="M25.8037 10.1404H12.8573C12.118 10.1404 11.518 10.7404 11.518 11.4796C11.518 12.2189 12.118 12.8189 12.8573 12.8189H27.143C27.143 12.8189 28.4823 12.7136 28.4823 11.4564V9.69392C28.4823 8.39214 27.9644 7.14213 27.0448 6.2207C26.1234 5.30106 24.8734 4.7832 23.5716 4.7832H5.71443C3.00192 4.7832 0.803711 6.98142 0.803711 9.69392V13.2654C0.803711 14.0046 1.40371 14.6046 2.143 14.6046C2.88228 14.6046 3.48228 14.0046 3.48228 13.2654C3.48228 13.2654 3.48228 11.4796 3.48228 9.69392C3.48228 8.46178 4.48228 7.46178 5.71443 7.46178H23.5716C24.1644 7.46178 24.7305 7.69749 25.1501 8.11535C25.568 8.53499 25.8037 9.10106 25.8037 9.69392V10.1404Z" fill="#5367FF"/>
<path fill-rule="evenodd" clip-rule="evenodd" d="M35.6251 30.6764H30.7144C29.4126 30.6764 28.1626 30.1585 27.2412 29.2389C26.3216 28.3174 25.8037 27.0674 25.8037 25.7656C25.8037 24.2103 25.8037 21.9638 25.8037 20.4085C25.8037 19.1067 26.3216 17.8567 27.2412 16.9353C28.1626 16.0156 29.4126 15.4978 30.7144 15.4978H35.6251V15.0513C35.6251 12.3388 33.4269 10.1406 30.7144 10.1406H2.143C1.40371 10.1406 0.803711 10.7406 0.803711 11.4799V30.6764C0.803711 31.9781 1.32157 33.2281 2.24121 34.1496C3.16264 35.0692 4.41264 35.5871 5.71442 35.5871H30.7144C32.0162 35.5871 33.2662 35.0692 34.1876 34.1496C35.1073 33.2281 35.6251 31.9781 35.6251 30.6764ZM14.643 14.6049C9.96085 14.6049 6.16085 18.4049 6.16085 23.0871C6.16085 27.7692 9.96085 31.5692 14.643 31.5692C19.3251 31.5692 23.1251 27.7692 23.1251 23.0871C23.1251 18.4049 19.3251 14.6049 14.643 14.6049ZM14.643 17.2835C17.8466 17.2835 20.4466 19.8835 20.4466 23.0871C20.4466 26.2906 17.8466 28.8906 14.643 28.8906C11.4394 28.8906 8.83942 26.2906 8.83942 23.0871C8.83942 19.8835 11.4394 17.2835 14.643 17.2835ZM15.9823 21.7478V19.5156C15.9823 18.7763 15.3823 18.1763 14.643 18.1763C13.9037 18.1763 13.3037 18.7763 13.3037 19.5156V21.7478H11.0716C10.3323 21.7478 9.73228 22.3478 9.73228 23.0871C9.73228 23.8263 10.3323 24.4263 11.0716 24.4263H13.3037V26.6585C13.3037 27.3978 13.9037 27.9978 14.643 27.9978C15.3823 27.9978 15.9823 27.3978 15.9823 26.6585V24.4263H18.2144C18.9537 24.4263 19.5537 23.8263 19.5537 23.0871C19.5537 22.3478 18.9537 21.7478 18.2144 21.7478H15.9823Z" fill="#5367FF"/>
<path fill-rule="evenodd" clip-rule="evenodd" d="M39.197 20.4082C39.197 19.5796 38.8684 18.785 38.2809 18.1993C37.6952 17.6118 36.9005 17.2832 36.072 17.2832C34.5166 17.2832 32.2702 17.2832 30.7148 17.2832C29.8863 17.2832 29.0916 17.6118 28.5059 18.1993C27.9184 18.785 27.5898 19.5796 27.5898 20.4082V25.7653C27.5898 26.5939 27.9184 27.3886 28.5059 27.9743C29.0916 28.5618 29.8863 28.8903 30.7148 28.8903H36.072C36.9005 28.8903 37.6952 28.5618 38.2809 27.9743C38.8684 27.3886 39.197 26.5939 39.197 25.7653V20.4082Z" fill="#5367FF"/>
</svg>
