<svg viewBox="0 0 64 64" xmlns="http://www.w3.org/2000/svg"><g id="Layer_45" data-name="Layer 45"><circle cx="32" cy="32" fill="#939598" r="29"/><circle cx="32" cy="32" fill="#808285" r="25"/><path d="m32.145 3a29.023 29.023 0 0 1 .69 4.017 25 25 0 1 1 -24.911 31.712 29.35 29.35 0 0 1 -3.924.271c-.049 0-.1 0-.145 0a29 29 0 1 0 28.29-36z" fill="#808285"/><path d="m32 57a25 25 0 0 0 .835-49.979 29.013 29.013 0 0 1 .165 2.979 29 29 0 0 1 -25.076 28.729 25 25 0 0 0 24.076 18.271z" fill="#6d6e71"/><g fill="#f1f2f2"><path d="m26.343 27.343a8 8 0 0 0 11.314 0l6.843-6.843a2.121 2.121 0 0 0 -3-3l-6.672 6.672a4 4 0 0 1 -5.656 0l-6.672-6.672a2.121 2.121 0 0 0 -3 3z"/><path d="m22.5 46.5 6.672-6.672a4 4 0 0 1 5.656 0l6.672 6.672a2.121 2.121 0 0 0 3-3l-6.843-6.843a8 8 0 0 0 -11.314 0l-6.843 6.843a2.121 2.121 0 0 0 3 3z"/></g></g></svg>